<mxfile host="www.draw.io" modified="2020-03-10T03:18:56.041Z" agent="Mozilla/5.0 (Windows NT 6.3; Win64; x64; rv:73.0) Gecko/20100101 Firefox/73.0" etag="BPZTjDQIJ7x69ePkuvMT" version="12.8.2" type="github">
  <diagram id="0uNQYvPThGTI73Z5MVmt" name="Page-1">
    <mxGraphModel dx="868" dy="457" grid="1" gridSize="15" guides="1" tooltips="1" connect="1" arrows="1" fold="1" page="1" pageScale="1" pageWidth="850" pageHeight="1100" math="0" shadow="0">
      <root>
        <mxCell id="0" />
        <mxCell id="1" parent="0" />
        <mxCell id="Lb3kyDjZWJiozyzoMxoJ-10" value="" style="html=1;shadow=0;dashed=0;shape=mxgraph.bootstrap.rrect;strokeColor=none;rSize=5;fillColor=#222222;" parent="1" vertex="1">
          <mxGeometry x="60" y="60" width="720" height="40" as="geometry" />
        </mxCell>
        <mxCell id="Lb3kyDjZWJiozyzoMxoJ-11" value="Brand" style="html=1;shadow=0;dashed=0;shape=mxgraph.bootstrap.rect;strokeColor=none;fillColor=none;fontColor=#999999;fontSize=14;whiteSpace=wrap;resizeHeight=1;" parent="Lb3kyDjZWJiozyzoMxoJ-10" vertex="1">
          <mxGeometry width="80" height="40" relative="1" as="geometry" />
        </mxCell>
        <mxCell id="Lb3kyDjZWJiozyzoMxoJ-12" value="Do One Thing at a Time" style="html=1;shadow=0;dashed=0;shape=mxgraph.bootstrap.rect;fillColor=#000000;strokeColor=none;fontColor=#ffffff;whiteSpace=wrap;resizeHeight=1;" parent="Lb3kyDjZWJiozyzoMxoJ-10" vertex="1">
          <mxGeometry width="285" height="40" relative="1" as="geometry">
            <mxPoint x="80" as="offset" />
          </mxGeometry>
        </mxCell>
        <mxCell id="Lb3kyDjZWJiozyzoMxoJ-15" value="Primary" style="html=1;shadow=0;dashed=0;shape=mxgraph.bootstrap.rrect;align=center;rSize=5;fillColor=#3D8BCD;strokeColor=#3D8BCD;fontColor=#ffffff;spacingRight=10;whiteSpace=wrap;" parent="Lb3kyDjZWJiozyzoMxoJ-10" vertex="1">
          <mxGeometry x="615" y="9" width="100" height="22" as="geometry" />
        </mxCell>
        <mxCell id="Lb3kyDjZWJiozyzoMxoJ-16" value="" style="shape=triangle;direction=south;strokeColor=none;perimeter=none;" parent="Lb3kyDjZWJiozyzoMxoJ-15" vertex="1">
          <mxGeometry x="1" y="0.5" width="10" height="5" relative="1" as="geometry">
            <mxPoint x="-20" y="-2.5" as="offset" />
          </mxGeometry>
        </mxCell>
        <mxCell id="vQIt9QDP9D2tmBwLkrNL-10" value="&lt;div&gt;List of morning tasks&lt;/div&gt;" style="html=1;shadow=0;dashed=0;shape=mxgraph.bootstrap.rrect;align=center;rSize=5;strokeColor=#FDF8E4;fontColor=#f0f0f0;spacingTop=30;whiteSpace=wrap;" vertex="1" parent="1">
          <mxGeometry x="120" y="135" width="180" height="200" as="geometry" />
        </mxCell>
        <mxCell id="vQIt9QDP9D2tmBwLkrNL-11" value="Morning" style="html=1;shadow=0;dashed=0;shape=mxgraph.bootstrap.topButton;rSize=5;strokeColor=none;fillColor=#FDF8E4;fontColor=#F2AE43;fontSize=14;fontStyle=1;align=left;spacingLeft=10;whiteSpace=wrap;resizeWidth=1;" vertex="1" parent="vQIt9QDP9D2tmBwLkrNL-10">
          <mxGeometry width="180" height="30" relative="1" as="geometry" />
        </mxCell>
        <mxCell id="vQIt9QDP9D2tmBwLkrNL-12" value="List of afternoon tasks" style="html=1;shadow=0;dashed=0;shape=mxgraph.bootstrap.rrect;align=center;rSize=5;strokeColor=#F2DEDF;fontColor=#f0f0f0;spacingTop=30;whiteSpace=wrap;" vertex="1" parent="1">
          <mxGeometry x="335" y="135" width="180" height="200" as="geometry" />
        </mxCell>
        <mxCell id="vQIt9QDP9D2tmBwLkrNL-13" value="Afternoon" style="html=1;shadow=0;dashed=0;shape=mxgraph.bootstrap.topButton;rSize=5;strokeColor=none;fillColor=#F2DEDF;fontColor=#DB524C;fontSize=14;fontStyle=1;align=left;spacingLeft=10;whiteSpace=wrap;resizeWidth=1;" vertex="1" parent="vQIt9QDP9D2tmBwLkrNL-12">
          <mxGeometry width="180" height="30" relative="1" as="geometry" />
        </mxCell>
        <mxCell id="vQIt9QDP9D2tmBwLkrNL-14" value="List of evening tasks" style="html=1;shadow=0;dashed=0;shape=mxgraph.bootstrap.rrect;align=center;rSize=5;strokeColor=#E0F0D6;fontColor=#f0f0f0;spacingTop=30;whiteSpace=wrap;" vertex="1" parent="1">
          <mxGeometry x="540" y="135" width="180" height="200" as="geometry" />
        </mxCell>
        <mxCell id="vQIt9QDP9D2tmBwLkrNL-15" value="Evening" style="html=1;shadow=0;dashed=0;shape=mxgraph.bootstrap.topButton;rSize=5;strokeColor=none;fillColor=#E0F0D6;fontColor=#59B958;fontSize=14;fontStyle=1;align=left;spacingLeft=10;whiteSpace=wrap;resizeWidth=1;" vertex="1" parent="vQIt9QDP9D2tmBwLkrNL-14">
          <mxGeometry width="180" height="30" relative="1" as="geometry" />
        </mxCell>
        <mxCell id="vQIt9QDP9D2tmBwLkrNL-16" value="Start" style="html=1;shadow=0;dashed=0;shape=mxgraph.bootstrap.rrect;rSize=5;fillColor=#55BFE0;align=center;strokeColor=#55BFE0;fontColor=#ffffff;fontSize=12;whiteSpace=wrap;" vertex="1" parent="1">
          <mxGeometry x="188" y="345" width="44" height="22" as="geometry" />
        </mxCell>
        <mxCell id="vQIt9QDP9D2tmBwLkrNL-18" value="Start" style="html=1;shadow=0;dashed=0;shape=mxgraph.bootstrap.rrect;rSize=5;fillColor=#55BFE0;align=center;strokeColor=#55BFE0;fontColor=#ffffff;fontSize=12;whiteSpace=wrap;" vertex="1" parent="1">
          <mxGeometry x="398" y="345" width="44" height="22" as="geometry" />
        </mxCell>
        <mxCell id="vQIt9QDP9D2tmBwLkrNL-19" value="Start" style="html=1;shadow=0;dashed=0;shape=mxgraph.bootstrap.rrect;rSize=5;fillColor=#55BFE0;align=center;strokeColor=#55BFE0;fontColor=#ffffff;fontSize=12;whiteSpace=wrap;" vertex="1" parent="1">
          <mxGeometry x="608" y="345" width="44" height="22" as="geometry" />
        </mxCell>
        <mxCell id="vQIt9QDP9D2tmBwLkrNL-20" value="Edit Lists" style="html=1;shadow=0;dashed=0;shape=mxgraph.bootstrap.rrect;rSize=5;fillColor=#58B957;align=center;strokeColor=#58B957;fontColor=#ffffff;fontSize=16;whiteSpace=wrap;" vertex="1" parent="1">
          <mxGeometry x="60" y="420" width="80" height="40" as="geometry" />
        </mxCell>
        <mxCell id="vQIt9QDP9D2tmBwLkrNL-72" value="" style="html=1;shadow=0;dashed=0;shape=partialRectangle;top=0;bottom=0;right=0;left=0;strokeColor=#dddddd;resizeWidth=1;" vertex="1" parent="1">
          <mxGeometry x="60" y="480" width="720" height="160" as="geometry" />
        </mxCell>
        <mxCell id="vQIt9QDP9D2tmBwLkrNL-73" value="" style="html=1;shadow=0;dashed=0;shape=mxgraph.bootstrap.horLines;strokeColor=inherit;fillColor=#000000;fillOpacity=3;resizeWidth=1;" vertex="1" parent="vQIt9QDP9D2tmBwLkrNL-72">
          <mxGeometry width="720" height="40" relative="1" as="geometry" />
        </mxCell>
        <mxCell id="vQIt9QDP9D2tmBwLkrNL-74" value="#" style="html=1;shadow=0;dashed=0;shape=mxgraph.bootstrap.rect;strokeColor=none;fillColor=none;fontSize=14;fontStyle=1;whiteSpace=wrap;resizeHeight=1;" vertex="1" parent="vQIt9QDP9D2tmBwLkrNL-73">
          <mxGeometry width="50" height="40" relative="1" as="geometry" />
        </mxCell>
        <mxCell id="vQIt9QDP9D2tmBwLkrNL-75" value="Thing" style="html=1;shadow=0;dashed=0;shape=mxgraph.bootstrap.rect;strokeColor=none;fillColor=none;fontSize=14;fontStyle=1;align=left;whiteSpace=wrap;resizeHeight=1;" vertex="1" parent="vQIt9QDP9D2tmBwLkrNL-73">
          <mxGeometry width="150" height="40" relative="1" as="geometry">
            <mxPoint x="80" as="offset" />
          </mxGeometry>
        </mxCell>
        <mxCell id="vQIt9QDP9D2tmBwLkrNL-76" value="AM" style="html=1;shadow=0;dashed=0;shape=mxgraph.bootstrap.rect;strokeColor=none;fillColor=none;fontSize=14;fontStyle=1;align=left;whiteSpace=wrap;resizeHeight=1;" vertex="1" parent="vQIt9QDP9D2tmBwLkrNL-73">
          <mxGeometry width="60" height="40" relative="1" as="geometry">
            <mxPoint x="365" as="offset" />
          </mxGeometry>
        </mxCell>
        <mxCell id="vQIt9QDP9D2tmBwLkrNL-77" value="PM" style="html=1;shadow=0;dashed=0;shape=mxgraph.bootstrap.rect;strokeColor=none;fillColor=none;fontSize=14;fontStyle=1;align=left;whiteSpace=wrap;resizeHeight=1;" vertex="1" parent="vQIt9QDP9D2tmBwLkrNL-73">
          <mxGeometry width="75" height="40" relative="1" as="geometry">
            <mxPoint x="455" as="offset" />
          </mxGeometry>
        </mxCell>
        <mxCell id="vQIt9QDP9D2tmBwLkrNL-78" value="Eve" style="html=1;shadow=0;dashed=0;shape=mxgraph.bootstrap.rect;strokeColor=none;fillColor=none;fontSize=14;fontStyle=1;align=left;whiteSpace=wrap;resizeHeight=1;" vertex="1" parent="vQIt9QDP9D2tmBwLkrNL-73">
          <mxGeometry width="100" height="40" relative="1" as="geometry">
            <mxPoint x="560" as="offset" />
          </mxGeometry>
        </mxCell>
        <mxCell id="vQIt9QDP9D2tmBwLkrNL-80" value="" style="strokeColor=inherit;fillColor=inherit;gradientColor=inherit;html=1;shadow=0;dashed=0;shape=mxgraph.bootstrap.horLines;resizeWidth=1;" vertex="1" parent="vQIt9QDP9D2tmBwLkrNL-72">
          <mxGeometry width="720" height="40" relative="1" as="geometry">
            <mxPoint y="40" as="offset" />
          </mxGeometry>
        </mxCell>
        <mxCell id="vQIt9QDP9D2tmBwLkrNL-81" value="1" style="html=1;shadow=0;dashed=0;shape=mxgraph.bootstrap.rect;strokeColor=none;fillColor=none;fontSize=14;whiteSpace=wrap;resizeHeight=1;" vertex="1" parent="vQIt9QDP9D2tmBwLkrNL-80">
          <mxGeometry width="50" height="40" relative="1" as="geometry" />
        </mxCell>
        <mxCell id="vQIt9QDP9D2tmBwLkrNL-82" value="Fax Paperwork" style="html=1;shadow=0;dashed=0;shape=mxgraph.bootstrap.rect;strokeColor=none;fillColor=none;fontSize=14;align=left;whiteSpace=wrap;resizeHeight=1;" vertex="1" parent="vQIt9QDP9D2tmBwLkrNL-80">
          <mxGeometry width="150" height="40" relative="1" as="geometry">
            <mxPoint x="80" as="offset" />
          </mxGeometry>
        </mxCell>
        <mxCell id="vQIt9QDP9D2tmBwLkrNL-85" value="" style="html=1;shadow=0;dashed=0;shape=mxgraph.bootstrap.checkbox;strokeColor=#666666" vertex="1" parent="vQIt9QDP9D2tmBwLkrNL-80">
          <mxGeometry y="0.5" width="20" height="20" relative="1" as="geometry">
            <mxPoint x="560" y="-10" as="offset" />
          </mxGeometry>
        </mxCell>
        <mxCell id="vQIt9QDP9D2tmBwLkrNL-87" value="" style="strokeColor=inherit;fillColor=inherit;gradientColor=inherit;html=1;shadow=0;dashed=0;shape=mxgraph.bootstrap.horLines;resizeWidth=1;" vertex="1" parent="vQIt9QDP9D2tmBwLkrNL-72">
          <mxGeometry width="720" height="40" relative="1" as="geometry">
            <mxPoint y="80" as="offset" />
          </mxGeometry>
        </mxCell>
        <mxCell id="vQIt9QDP9D2tmBwLkrNL-88" value="2" style="html=1;shadow=0;dashed=0;shape=mxgraph.bootstrap.rect;strokeColor=none;fillColor=none;fontSize=14;whiteSpace=wrap;resizeHeight=1;" vertex="1" parent="vQIt9QDP9D2tmBwLkrNL-87">
          <mxGeometry width="50" height="40" relative="1" as="geometry" />
        </mxCell>
        <mxCell id="vQIt9QDP9D2tmBwLkrNL-89" value="Enter Data" style="html=1;shadow=0;dashed=0;shape=mxgraph.bootstrap.rect;strokeColor=none;fillColor=none;fontSize=14;align=left;whiteSpace=wrap;resizeHeight=1;" vertex="1" parent="vQIt9QDP9D2tmBwLkrNL-87">
          <mxGeometry width="150" height="40" relative="1" as="geometry">
            <mxPoint x="80" as="offset" />
          </mxGeometry>
        </mxCell>
        <mxCell id="vQIt9QDP9D2tmBwLkrNL-92" value="" style="html=1;shadow=0;dashed=0;shape=mxgraph.bootstrap.checkbox;strokeColor=#666666" vertex="1" parent="vQIt9QDP9D2tmBwLkrNL-87">
          <mxGeometry y="0.5" width="20" height="20" relative="1" as="geometry">
            <mxPoint x="560" y="-10" as="offset" />
          </mxGeometry>
        </mxCell>
        <mxCell id="vQIt9QDP9D2tmBwLkrNL-94" value="" style="strokeColor=inherit;fillColor=inherit;gradientColor=inherit;html=1;shadow=0;dashed=0;shape=mxgraph.bootstrap.horLines;resizeWidth=1;" vertex="1" parent="vQIt9QDP9D2tmBwLkrNL-72">
          <mxGeometry width="720" height="40" relative="1" as="geometry">
            <mxPoint y="120" as="offset" />
          </mxGeometry>
        </mxCell>
        <mxCell id="vQIt9QDP9D2tmBwLkrNL-95" value="3" style="html=1;shadow=0;dashed=0;shape=mxgraph.bootstrap.rect;strokeColor=none;fillColor=none;fontSize=14;whiteSpace=wrap;resizeHeight=1;" vertex="1" parent="vQIt9QDP9D2tmBwLkrNL-94">
          <mxGeometry width="50" height="40" relative="1" as="geometry" />
        </mxCell>
        <mxCell id="vQIt9QDP9D2tmBwLkrNL-96" value="Prepare Charts" style="html=1;shadow=0;dashed=0;shape=mxgraph.bootstrap.rect;strokeColor=none;fillColor=none;fontSize=14;align=left;whiteSpace=wrap;resizeHeight=1;" vertex="1" parent="vQIt9QDP9D2tmBwLkrNL-94">
          <mxGeometry width="150" height="40" relative="1" as="geometry">
            <mxPoint x="80" as="offset" />
          </mxGeometry>
        </mxCell>
        <mxCell id="vQIt9QDP9D2tmBwLkrNL-99" value="" style="html=1;shadow=0;dashed=0;shape=mxgraph.bootstrap.rrect;rSize=3;strokeColor=#666666" vertex="1" parent="vQIt9QDP9D2tmBwLkrNL-94">
          <mxGeometry y="0.5" width="20" height="20" relative="1" as="geometry">
            <mxPoint x="560" y="-10" as="offset" />
          </mxGeometry>
        </mxCell>
        <mxCell id="vQIt9QDP9D2tmBwLkrNL-105" value="" style="html=1;shadow=0;dashed=0;shape=mxgraph.bootstrap.checkbox;strokeColor=#666666" vertex="1" parent="vQIt9QDP9D2tmBwLkrNL-94">
          <mxGeometry x="375" y="-75" width="20" height="20" as="geometry">
            <mxPoint x="560" y="-10" as="offset" />
          </mxGeometry>
        </mxCell>
        <mxCell id="vQIt9QDP9D2tmBwLkrNL-106" value="" style="html=1;shadow=0;dashed=0;shape=mxgraph.bootstrap.checkbox;strokeColor=#666666" vertex="1" parent="vQIt9QDP9D2tmBwLkrNL-94">
          <mxGeometry x="375" y="-35" width="20" height="20" as="geometry">
            <mxPoint x="560" y="-10" as="offset" />
          </mxGeometry>
        </mxCell>
        <mxCell id="vQIt9QDP9D2tmBwLkrNL-107" value="" style="html=1;shadow=0;dashed=0;shape=mxgraph.bootstrap.rrect;rSize=3;strokeColor=#666666" vertex="1" parent="vQIt9QDP9D2tmBwLkrNL-94">
          <mxGeometry x="375" y="5" width="20" height="20" as="geometry">
            <mxPoint x="560" y="-10" as="offset" />
          </mxGeometry>
        </mxCell>
        <mxCell id="vQIt9QDP9D2tmBwLkrNL-108" value="" style="html=1;shadow=0;dashed=0;shape=mxgraph.bootstrap.checkbox;strokeColor=#666666" vertex="1" parent="vQIt9QDP9D2tmBwLkrNL-94">
          <mxGeometry x="465" y="-75" width="20" height="20" as="geometry">
            <mxPoint x="560" y="-10" as="offset" />
          </mxGeometry>
        </mxCell>
        <mxCell id="vQIt9QDP9D2tmBwLkrNL-109" value="" style="html=1;shadow=0;dashed=0;shape=mxgraph.bootstrap.checkbox;strokeColor=#666666" vertex="1" parent="vQIt9QDP9D2tmBwLkrNL-94">
          <mxGeometry x="465" y="-35" width="20" height="20" as="geometry">
            <mxPoint x="560" y="-10" as="offset" />
          </mxGeometry>
        </mxCell>
        <mxCell id="vQIt9QDP9D2tmBwLkrNL-110" value="" style="html=1;shadow=0;dashed=0;shape=mxgraph.bootstrap.rrect;rSize=3;strokeColor=#666666" vertex="1" parent="vQIt9QDP9D2tmBwLkrNL-94">
          <mxGeometry x="465" y="5" width="20" height="20" as="geometry">
            <mxPoint x="560" y="-10" as="offset" />
          </mxGeometry>
        </mxCell>
        <mxCell id="vQIt9QDP9D2tmBwLkrNL-111" value="New thing here" style="html=1;shadow=0;dashed=0;shape=mxgraph.bootstrap.rrect;rSize=5;strokeColor=#dddddd;fontSize=14;align=left;spacingLeft=8;whiteSpace=wrap;" vertex="1" parent="vQIt9QDP9D2tmBwLkrNL-94">
          <mxGeometry x="60" y="5" width="250" height="30" as="geometry" />
        </mxCell>
        <mxCell id="vQIt9QDP9D2tmBwLkrNL-112" value="Save Changes" style="html=1;shadow=0;dashed=0;shape=mxgraph.bootstrap.rrect;rSize=5;fillColor=#3D8BCD;align=center;strokeColor=#3D8BCD;fontColor=#ffffff;fontSize=16;whiteSpace=wrap;" vertex="1" parent="1">
          <mxGeometry x="170" y="420" width="80" height="40" as="geometry" />
        </mxCell>
      </root>
    </mxGraphModel>
  </diagram>
</mxfile>
